<svg width="41" height="40" viewBox="0 0 41 40" fill="none" xmlns="http://www.w3.org/2000/svg">
<path d="M32.1165 36.6673H8.7832C3.7832 36.6673 3.7832 34.4173 3.7832 31.6673V30.0007C3.7832 29.084 4.5332 28.334 5.44987 28.334H35.4499C36.3665 28.334 37.1165 29.084 37.1165 30.0007V31.6673C37.1165 34.4173 37.1165 36.6673 32.1165 36.6673Z" stroke="#F37B70" stroke-width="2" stroke-linecap="round" stroke-linejoin="round"/>
<path d="M35.0325 21.6673V28.334H5.94922V21.6673C5.94922 15.2673 10.4659 9.91732 16.4826 8.63398C17.3826 8.43398 18.3159 8.33398 19.2826 8.33398H21.6992C22.6659 8.33398 23.6159 8.43398 24.5159 8.63398C30.5325 9.93398 35.0325 15.2673 35.0325 21.6673Z" stroke="#F37B70" stroke-width="2" stroke-linecap="round" stroke-linejoin="round"/>
<path d="M24.6673 7.50065C24.6673 7.90065 24.6173 8.26732 24.5173 8.63398C23.6173 8.43398 22.6673 8.33398 21.7007 8.33398H19.284C18.3173 8.33398 17.384 8.43398 16.484 8.63398C16.384 8.26732 16.334 7.90065 16.334 7.50065C16.334 5.20065 18.2007 3.33398 20.5007 3.33398C22.8006 3.33398 24.6673 5.20065 24.6673 7.50065Z" stroke="#F37B70" stroke-width="2" stroke-linecap="round" stroke-linejoin="round"/>
<path d="M25.5 18.334H15.5" stroke="#F37B70" stroke-width="2" stroke-linecap="round" stroke-linejoin="round"/>
</svg>
