<svg width="24" height="25" viewBox="0 0 24 25" fill="none" xmlns="http://www.w3.org/2000/svg">
<path d="M6.96289 20.5H3.4541V9.63086H6.96289V20.5ZM16.5479 9.52539C19.0412 9.52546 21 11.0886 21 14.4551V20.499H17.0215V14.874C17.0214 13.4019 16.3995 12.3966 15.0312 12.3965C13.9848 12.3965 13.4028 13.075 13.1318 13.7285C13.0302 13.9631 13.0459 14.2904 13.0459 14.6172V20.499H9.10449C9.10449 20.499 9.15527 10.537 9.10449 9.62988H13.0459V11.3359C13.2787 10.5901 14.5381 9.52539 16.5479 9.52539ZM5.14355 4.5C6.4375 4.50019 7.23325 5.31139 7.25879 6.38379C7.25879 7.4369 6.4376 8.27133 5.11914 8.27148H5.09375C3.82376 8.27148 3 7.43993 3 6.38672C3.00024 5.31324 3.84835 4.5 5.14355 4.5Z" fill="#141933"/>
</svg>
