<svg width="145" height="63" viewBox="0 0 145 63" fill="none" xmlns="http://www.w3.org/2000/svg">
<path d="M51.1142 3.89958C51.5294 4.59947 51.738 5.34552 51.738 6.13879C51.738 6.7453 51.6446 7.2584 51.4609 7.67811L36.9571 44.0322H28.3752L41.9096 10.1975H21.0781V2.15039H47.7921C49.1766 2.15039 50.284 2.7338 51.1142 3.89958Z" fill="#89A3AB"/>
<path d="M112.501 33.0508C114.808 30.7707 115.962 27.2755 115.962 22.5652C115.962 17.858 114.808 14.3628 112.501 12.0816C110.701 10.2422 108.232 9.32088 105.095 9.32088C101.958 9.32088 99.4897 10.2422 97.6901 12.0816C95.3362 14.3985 94.1604 17.8937 94.1604 22.5652C94.1604 27.2367 95.3362 30.734 97.6901 33.0508C99.4897 34.8913 101.957 35.8105 105.095 35.8105C108.233 35.8105 110.701 34.8913 112.501 33.0508ZM122.605 13.5569C123.482 16.0962 123.92 19.1004 123.92 22.5652C123.92 25.9523 123.482 28.9754 122.605 31.6353C121.775 34.2565 120.483 36.5135 118.73 38.4086C117.023 40.2228 114.969 41.6341 112.571 42.6415C110.217 43.568 107.726 44.0318 105.095 44.0318C102.466 44.0318 99.9743 43.568 97.6205 42.6415C95.221 41.6341 93.1682 40.2228 91.4609 38.4086C89.707 36.5135 88.4159 34.2565 87.5857 31.6353C86.662 28.8547 86.2012 25.8316 86.2012 22.5652C86.2012 19.3008 86.6391 16.2987 87.5161 13.5569C88.4387 10.856 89.7537 8.57902 91.4609 6.72387C93.2139 4.78895 95.2677 3.37869 97.6205 2.49099C99.9743 1.5634 102.466 1.09961 105.095 1.09961C107.726 1.09961 110.217 1.5634 112.571 2.49099C114.924 3.37869 116.976 4.78895 118.73 6.72387C120.483 8.61891 121.775 10.8959 122.605 13.5569Z" fill="#89A3AB"/>
<path d="M134.23 12.2468C134.917 11.5679 135.261 10.527 135.261 9.12511C135.261 7.72428 134.917 6.68443 134.23 6.00554C133.694 5.4578 132.96 5.18394 132.027 5.18394C131.093 5.18394 130.358 5.45781 129.822 6.00554C129.122 6.69493 128.772 7.73479 128.772 9.12511C128.772 10.5165 129.122 11.5563 129.822 12.2468C130.358 12.7935 131.093 13.0673 132.027 13.0673C132.96 13.0673 133.694 12.7935 134.23 12.2468ZM138.581 5.75475C138.909 6.70541 139.073 7.82923 139.073 9.12511C139.073 10.3927 138.909 11.5238 138.581 12.5196C138.269 13.4997 137.786 14.3443 137.131 15.0537C136.491 15.7326 135.723 16.2604 134.826 16.6371C133.946 16.9833 133.013 17.1575 132.029 17.1575C131.045 17.1575 130.113 16.9833 129.232 16.6371C128.334 16.2604 127.566 15.7326 126.927 15.0537C126.271 14.3443 125.788 13.4997 125.478 12.5196C125.132 11.4787 124.959 10.3476 124.959 9.12511C124.959 7.90372 125.123 6.78096 125.452 5.75475C125.797 4.74427 126.288 3.89224 126.927 3.1976C127.584 2.47463 128.352 1.94684 129.232 1.6142C130.113 1.26793 131.045 1.09375 132.029 1.09375C133.013 1.09375 133.946 1.26793 134.826 1.6142C135.706 1.94682 136.474 2.47463 137.131 3.1976C137.786 3.90694 138.269 4.75896 138.581 5.75475Z" fill="#89A3AB"/>
<path d="M66.8723 35.9847L77.4697 26.9491C78.0685 26.4392 78.628 25.883 79.1458 25.2923C82.2469 21.3784 83.4695 15.8811 81.2703 10.1467C79.1157 4.53081 73.6079 0.961082 67.6518 1.09959L67.63 1.10065C61.4953 1.10799 56.2418 4.90437 54.0291 10.2999L61.2877 13.4153C61.4227 13.0858 61.5897 12.7909 61.7766 12.5171C63.2046 10.0648 66.0846 8.57797 69.2293 9.29463C72.2556 9.98402 74.4382 12.8161 74.461 15.9535C74.4756 17.773 73.7512 19.1381 72.6407 20.4708C72.0854 21.1371 71.4565 21.7373 70.8047 22.307L53.5361 37.3844C52.4723 38.6751 52.1537 40.2197 52.9134 41.652C53.6057 43.2385 54.8054 44.0318 56.5127 44.0318H84.2666V35.9847H66.8723Z" fill="#89A3AB"/>
<path d="M8.42893 54.3828H7.26758V59.5695H8.42893V54.3828Z" fill="#89A3AB"/>
<path d="M10.6602 54.3828H14.167V55.409H11.8215V56.4195H13.6439V57.4153H11.8215V58.5349H14.3362V59.5695H10.6602V54.3828Z" fill="#89A3AB"/>
<path d="M18.2333 58.6671C18.3153 58.6671 18.4077 58.6608 18.5104 58.6482C18.6132 58.6346 18.7076 58.6052 18.7948 58.558C18.882 58.5118 18.9546 58.4446 19.0138 58.3565C19.0739 58.2684 19.103 58.1466 19.103 57.9903C19.103 57.8507 19.074 57.7364 19.0179 57.6482C18.9619 57.5601 18.8903 57.4919 18.8031 57.4426C18.7159 57.3933 18.6204 57.3597 18.5187 57.3419C18.4149 57.323 18.3205 57.3146 18.2333 57.3146H17.4798V58.6671H18.2333ZM18.1648 56.4594C18.252 56.4594 18.3371 56.4489 18.4222 56.4279C18.5063 56.4069 18.581 56.3744 18.6453 56.3303C18.7087 56.2863 18.7616 56.2275 18.8031 56.1519C18.8436 56.0764 18.8643 55.9841 18.8643 55.876C18.8643 55.7616 18.8436 55.6672 18.8031 55.5916C18.7616 55.5171 18.7076 55.4573 18.6412 55.4132C18.5748 55.3692 18.499 55.3377 18.4149 55.3198C18.3298 55.302 18.2468 55.2925 18.1648 55.2925H17.4798V56.4594L18.1648 56.4594ZM16.3496 54.3828H18.2727C18.5903 54.3828 18.8591 54.4206 19.0791 54.4961C19.3002 54.5706 19.4797 54.6703 19.6178 54.7952C19.7558 54.919 19.8565 55.0628 19.9177 55.2265C19.98 55.3902 20.0101 55.5591 20.0101 55.7354C20.0101 55.9022 19.981 56.0481 19.9219 56.175C19.8627 56.302 19.7942 56.4111 19.7143 56.5014C19.6344 56.5926 19.5493 56.664 19.46 56.7154C19.3708 56.7668 19.295 56.8014 19.2338 56.8161C19.3261 56.8371 19.432 56.8749 19.5524 56.9295C19.6728 56.984 19.7869 57.0617 19.8949 57.1624C20.0028 57.2631 20.0931 57.3901 20.1678 57.5433C20.2426 57.6965 20.2789 57.877 20.2789 58.0837C20.2789 58.3534 20.2311 58.5811 20.1367 58.7679C20.0422 58.9546 19.9084 59.1078 19.7371 59.2275C19.5659 59.346 19.3552 59.4331 19.1061 59.4877C18.8581 59.5422 18.5799 59.5695 18.2727 59.5695H16.3496L16.3496 54.3828Z" fill="#89A3AB"/>
<path d="M22.3027 54.3828H25.8096V55.409H23.4641V56.4195H25.2865V57.4153H23.4641V58.5349H25.9788V59.5695H22.3027V54.3828Z" fill="#89A3AB"/>
<path d="M27.9941 54.3828H29.1015L31.3235 57.75V54.3828H32.4693V59.5695H31.4159L29.1399 56.1404V59.5695H27.9941V54.3828Z" fill="#89A3AB"/>
<path d="M34.6992 54.3828H35.8595V56.3733H38.0826V54.3828H39.2439V59.5695H38.0826V57.4384H35.8595V59.5695H34.6992V54.3828Z" fill="#89A3AB"/>
<path d="M41.4355 54.3828H42.6052V57.4541C42.6052 57.6252 42.6218 57.7794 42.655 57.9169C42.6882 58.0543 42.7432 58.1718 42.82 58.2705C42.8968 58.3691 42.9975 58.4457 43.1241 58.5003C43.2497 58.5548 43.4043 58.5811 43.5891 58.5811C43.7686 58.5811 43.9212 58.5548 44.0468 58.5003C44.1723 58.4457 44.2741 58.3691 44.3509 58.2705C44.4277 58.1718 44.4827 58.0543 44.5159 57.9169C44.5491 57.7794 44.5657 57.6251 44.5657 57.4541V54.3828H45.7426V57.6021C45.7426 57.9127 45.6928 58.1981 45.5921 58.4572C45.4925 58.7164 45.3493 58.9378 45.1614 59.1225C44.9746 59.3061 44.7473 59.4499 44.4816 59.5538C44.2149 59.6566 43.917 59.7091 43.5891 59.7091C43.2611 59.7091 42.9633 59.6587 42.6965 59.5569C42.4298 59.4562 42.2036 59.3124 42.0168 59.1257C41.8289 58.9399 41.6857 58.7164 41.586 58.4572C41.4854 58.1981 41.4356 57.9127 41.4356 57.6021L41.4355 54.3828Z" fill="#89A3AB"/>
<path d="M47.9355 54.3828H49.0429L51.2649 57.75V54.3828H52.4107V59.5695H51.3573L49.0813 56.1404V59.5695H47.9355V54.3828Z" fill="#89A3AB"/>
<path d="M56.5087 58.5276C57.0214 58.5276 57.4168 58.3912 57.6939 58.1194C57.9711 57.8476 58.1091 57.472 58.1091 56.9956C58.1091 56.7574 58.0769 56.5402 58.0126 56.3461C57.9482 56.1519 57.8517 55.9862 57.7209 55.8487C57.5902 55.7112 57.4241 55.6053 57.2249 55.5297C57.0246 55.4542 56.7858 55.4174 56.5087 55.4174H55.802V58.5276H56.5087ZM54.6406 54.3828H56.5783C56.9737 54.3828 57.339 54.4353 57.6742 54.5381C58.0095 54.642 58.3001 54.8004 58.5429 55.0124C58.7868 55.2254 58.9767 55.4972 59.1127 55.8288C59.2476 56.1614 59.3161 56.5528 59.3161 57.0029C59.3161 57.4331 59.2476 57.8077 59.1085 58.1267C58.9705 58.4457 58.7795 58.7122 58.5356 58.9273C58.2917 59.1424 58.0022 59.303 57.667 59.41C57.3307 59.516 56.9654 59.5695 56.571 59.5695H54.6406V54.3828Z" fill="#89A3AB"/>
<path d="M61.3848 54.3828H64.8916V55.409H62.5461V56.4195H64.3686V57.4153H62.5461V58.5349H65.0608V59.5695H61.3848V54.3828Z" fill="#89A3AB"/>
<path d="M68.9215 56.7228C69.1373 56.7228 69.3065 56.6588 69.429 56.5286C69.5525 56.3996 69.6137 56.2359 69.6137 56.0386C69.6137 55.8267 69.5525 55.6577 69.429 55.5339C69.3065 55.409 69.1373 55.3471 68.9215 55.3471H68.2064V56.7228H68.9215ZM67.0762 54.3828H68.9827C69.2806 54.3828 69.5421 54.4258 69.7673 54.5108C69.9935 54.5969 70.1814 54.7133 70.3319 54.8613C70.4834 55.0092 70.5965 55.1813 70.6713 55.3786C70.7449 55.5748 70.7823 55.7847 70.7823 56.0082C70.7823 56.345 70.7096 56.6388 70.5633 56.8907C70.417 57.1425 70.2104 57.3429 69.9437 57.493L71.0822 59.5695H69.8057L68.8519 57.664H68.2064V59.5695H67.0762L67.0762 54.3828Z" fill="#89A3AB"/>
<path d="M74.2983 55.4174H72.6367V54.3828H77.1202V55.4174H75.4669V59.5695H74.2983V55.4174Z" fill="#89A3AB"/>
<path d="M83.0542 55.3722L81.1435 55.3942C80.9609 55.3942 80.499 55.8496 80.4347 56.0448H80.1337V54.3848H84.5788V54.5033L80.6173 58.5631L82.6245 58.5421C82.9359 58.5421 83.5907 57.9115 83.5907 57.7163H83.8813L83.6021 59.5841H79.2754V59.1927L83.0542 55.3722Z" fill="#89A3AB"/>
<path d="M91.001 55.3952C91.0757 55.243 90.8931 54.7656 90.7758 54.7656H90.2922L90.206 54.3857H92.3647V54.7656H92.1707C92.0638 54.7656 91.6445 55.222 91.5272 55.3952L89.5729 59.2923L88.9928 59.7151C88.9928 59.7151 88.779 57.4581 88.5206 56.1223H88.4666L86.9098 59.2923L86.3089 59.7151C86.3089 59.7151 86.0298 57.0782 85.7724 55.4056C85.7402 55.2325 85.4289 54.7656 85.3105 54.7656H85.0957V54.3857H87.0074V55.3847C87.1361 56.4266 87.243 57.5987 87.243 57.5987H87.2855L88.3597 55.1569L89.3903 54.0059C89.6913 55.5798 89.9165 57.5882 89.9165 57.5882H89.9601L91.001 55.3952Z" fill="#89A3AB"/>
<path d="M95.0437 57.6853C95.1838 57.2625 95.3021 56.6434 95.3665 56.1985C95.4848 55.4167 95.3135 54.7976 94.7002 54.7976C94.1211 54.7976 93.6167 55.3831 93.3479 56.1219C93.1974 56.5342 93.0687 57.1208 93.0147 57.5657C92.9182 58.3359 93.1434 58.999 93.735 58.999C94.3141 58.999 94.8081 58.3904 95.0437 57.6853ZM95.1734 58.6077C94.6898 59.3789 94.0245 59.7042 93.4548 59.7042C92.446 59.7042 91.8555 58.9445 91.8555 57.8154C91.8555 56.1659 93.0791 54.2656 94.6898 54.2656C95.27 54.2656 95.7204 54.5374 95.9352 55.1124L96.9232 54.3852H97.0198L96.1501 58.4125C96.1179 58.5751 96.3213 58.8028 96.4614 58.8028C96.5475 58.8028 96.8693 58.5321 96.9658 58.4125L97.1702 58.6947C96.9554 58.977 96.2466 59.6716 95.764 59.6821C95.2482 59.6937 95.1516 59.1501 95.2264 58.6076L95.1734 58.6077Z" fill="#89A3AB"/>
<path d="M99.9177 56.3273L99.349 59.5844H98.1036L98.7689 55.7848C98.7907 55.6327 98.5115 55.2633 98.3828 55.2633H97.9531V54.9381C98.8446 54.6558 99.843 54.2539 99.843 54.2539V55.7523H99.896C100.38 55.2098 101.356 54.2644 101.99 54.2644C102.796 54.2644 103.3 55.0461 103.053 55.8058C102.816 56.5445 102.462 57.662 102.248 58.4333C102.205 58.618 102.409 58.8131 102.549 58.8131C102.656 58.8131 102.967 58.5414 103.075 58.4112L103.278 58.6935C103.009 59.0629 102.409 59.682 101.926 59.682C101.346 59.682 100.874 59.172 101.034 58.4879C101.249 57.597 101.614 56.512 101.84 55.8279C101.915 55.6002 101.55 55.1983 101.346 55.1983C100.96 55.1983 99.9395 56.1752 99.9177 56.3273Z" fill="#89A3AB"/>
<path d="M107.357 55.3722L105.446 55.3942C105.264 55.3942 104.802 55.8496 104.737 56.0448H104.436V54.3848H108.882V54.5033L104.92 58.5631L106.927 58.5421C107.239 58.5421 107.893 57.9115 107.893 57.7163H108.184L107.905 59.5841H103.578V59.1927L107.357 55.3722Z" fill="#89A3AB"/>
<path d="M110.031 55.8181C110.063 55.6439 109.751 55.2861 109.633 55.2861H109.215V54.9388C110.299 54.689 111.512 54.2441 111.512 54.2441C111.361 54.9933 110.814 57.859 110.728 58.412C110.706 58.5862 110.889 58.8139 111.029 58.8139C111.114 58.8139 111.415 58.5421 111.522 58.434L111.726 58.7163C111.533 58.944 110.804 59.6932 110.32 59.7037C109.804 59.7152 109.462 59.2703 109.483 58.7593C109.504 58.2063 109.998 56.0133 110.031 55.8181Z" fill="#89A3AB"/>
<path d="M115.547 56.6969C115.611 56.4472 115.676 56.1219 115.698 55.8502C115.74 55.2101 115.429 54.7641 114.935 54.7641C114.388 54.7641 113.979 55.123 113.829 55.763C113.764 56.0348 113.711 56.3391 113.689 56.5993C113.647 57.1639 113.915 57.6518 114.452 57.6518C114.999 57.6518 115.397 57.2719 115.547 56.6969ZM112.422 60.572C112.358 60.9519 113.668 61.4629 114.119 61.4629C114.581 61.4513 115.794 61.3747 115.794 60.7242C115.794 60.551 115.644 60.4419 115.397 60.4419C114.129 60.4639 113.056 60.4744 113.131 60.019C112.906 60.0725 112.476 60.2793 112.422 60.572ZM114.441 58.2709H113.764C113.346 58.3475 113.185 58.5427 113.185 58.8249C113.185 59.0631 113.388 59.2373 113.711 59.2698C114.28 59.3349 114.828 59.3349 115.579 59.3244C116.244 59.3128 116.717 59.6717 116.717 60.2247C116.717 61.3317 115.451 61.9067 114.043 61.9067C112.659 61.9067 111.574 61.5164 111.574 60.8217C111.574 60.2793 112.261 59.954 112.874 59.7903C112.508 59.7578 112.058 59.4755 112.058 59.0747C112.058 58.4776 112.841 58.0978 113.636 57.9341C113.281 57.8365 112.616 57.3486 112.616 56.4913C112.616 55.145 113.647 54.2657 114.946 54.2657C115.837 54.2657 116.405 54.9708 116.331 55.8827H116.395C116.449 55.123 116.632 53.6907 117.372 53.7988L117.705 55.4052H117.415C117.233 55.4052 116.846 56.0673 116.814 56.273C116.652 57.3045 115.73 58.2709 114.441 58.2709Z" fill="#89A3AB"/>
<path d="M122.736 56.7148H124.713V58.9624C124.445 59.1954 124.134 59.3748 123.778 59.5017C123.421 59.6287 123.016 59.6927 122.559 59.6927C122.139 59.6927 121.763 59.6266 121.432 59.4944C121.101 59.3622 120.821 59.1765 120.591 58.9383C120.359 58.7001 120.184 58.4157 120.063 58.0831C119.943 57.7515 119.883 57.3864 119.883 56.9866C119.883 56.5983 119.947 56.2384 120.075 55.9058C120.204 55.5742 120.385 55.2857 120.622 55.0391C120.856 54.7925 121.135 54.5994 121.459 54.4599C121.782 54.3203 122.141 54.25 122.536 54.25C123.003 54.25 123.411 54.3371 123.762 54.5102C124.114 54.6844 124.405 54.9268 124.635 55.2374L123.85 55.9918C123.686 55.7946 123.506 55.634 123.309 55.5092C123.112 55.3853 122.869 55.3234 122.582 55.3234C122.347 55.3234 122.136 55.3665 121.951 55.4557C121.766 55.5438 121.611 55.6624 121.482 55.8124C121.354 55.9635 121.257 56.1398 121.19 56.3413C121.123 56.5438 121.09 56.7589 121.09 56.9866C121.09 57.2363 121.128 57.4609 121.205 57.6634C121.282 57.8659 121.39 58.038 121.528 58.1807C121.667 58.3234 121.83 58.4326 122.017 58.5113C122.204 58.5889 122.408 58.6277 122.628 58.6277C122.833 58.6277 123.02 58.6025 123.189 58.5532C123.359 58.5049 123.51 58.4252 123.644 58.3161V57.6634H122.736L122.736 56.7148Z" fill="#89A3AB"/>
<path d="M128.719 56.7228C128.934 56.7228 129.103 56.6588 129.227 56.5286C129.349 56.3996 129.412 56.2359 129.412 56.0386C129.412 55.8267 129.349 55.6577 129.227 55.5339C129.103 55.409 128.934 55.3471 128.719 55.3471H128.004V56.7228H128.719ZM126.873 54.3828H128.781C129.078 54.3828 129.339 54.4258 129.565 54.5108C129.79 54.5969 129.979 54.7133 130.13 54.8613C130.281 55.0092 130.394 55.1813 130.469 55.3786C130.543 55.5748 130.58 55.7847 130.58 56.0082C130.58 56.345 130.508 56.6388 130.361 56.8907C130.215 57.1425 130.008 57.3429 129.742 57.493L130.88 59.5695H129.604L128.65 57.664H128.004V59.5695H126.873V54.3828Z" fill="#89A3AB"/>
<path d="M135.464 57.4699L134.84 55.5098L134.203 57.4699H135.464ZM134.241 54.3828H135.526L137.401 59.5695H136.133L135.741 58.3796H133.933L133.541 59.5695H132.326L134.241 54.3828Z" fill="#89A3AB"/>
<path d="M141.061 58.5276C141.574 58.5276 141.97 58.3912 142.247 58.1194C142.523 57.8476 142.662 57.472 142.662 56.9956C142.662 56.7574 142.63 56.5402 142.565 56.3461C142.501 56.1519 142.404 55.9862 142.274 55.8487C142.143 55.7112 141.977 55.6053 141.777 55.5297C141.577 55.4542 141.339 55.4174 141.061 55.4174H140.355V58.5276H141.061ZM139.193 54.3828H141.131C141.525 54.3828 141.891 54.4353 142.227 54.5381C142.562 54.642 142.853 54.8004 143.096 55.0124C143.34 55.2254 143.528 55.4972 143.665 55.8288C143.801 56.1614 143.869 56.5528 143.869 57.0029C143.869 57.4331 143.799 57.8077 143.661 58.1267C143.523 58.4457 143.332 58.7122 143.088 58.9273C142.844 59.1424 142.555 59.303 142.22 59.41C141.883 59.516 141.518 59.5695 141.124 59.5695H139.193L139.193 54.3828Z" fill="#89A3AB"/>
<path d="M1.8771 58.0207C1.94353 58.0942 2.0224 58.1676 2.11164 58.2421C2.2009 58.3177 2.30157 58.3859 2.41158 58.4488C2.52158 58.5107 2.64198 58.5611 2.77378 58.5999C2.90351 58.6387 3.04361 58.6587 3.19202 58.6587C3.2792 58.6587 3.36638 58.6451 3.45356 58.6199C3.54073 58.5936 3.61961 58.5559 3.69226 58.5065C3.76387 58.4583 3.822 58.3985 3.86558 58.3282C3.90813 58.2579 3.92992 58.1792 3.92992 58.091C3.92992 57.899 3.8386 57.75 3.65386 57.644C3.46912 57.538 3.17645 57.4321 2.7769 57.3292C2.58179 57.282 2.40119 57.2149 2.23514 57.1267C2.06805 57.0386 1.92378 56.9326 1.80339 56.8077C1.683 56.6839 1.5896 56.5412 1.52317 56.3807C1.45674 56.2201 1.42354 56.0407 1.42354 55.8434C1.42354 55.6262 1.46194 55.4216 1.53874 55.2296C1.61553 55.0376 1.73178 54.8676 1.88849 54.7207C2.0452 54.5727 2.23928 54.4562 2.47279 54.3702C2.70631 54.2852 2.98133 54.2422 3.29995 54.2422C3.56148 54.2422 3.79189 54.2695 3.99219 54.324C4.19146 54.3786 4.36166 54.4426 4.50385 54.5182C4.64396 54.5937 4.75917 54.6714 4.84945 54.7511C4.93871 54.8319 5.0072 54.8949 5.05286 54.9421L4.38449 55.6881C4.3274 55.642 4.26202 55.5916 4.18834 55.537C4.11361 55.4825 4.03059 55.4321 3.93823 55.3849C3.84587 55.3387 3.74414 55.2999 3.63414 55.2684C3.52413 55.2369 3.40789 55.2223 3.28438 55.2223C3.20239 55.2223 3.12145 55.2348 3.04153 55.2611C2.96266 55.2873 2.89105 55.3219 2.8267 55.366C2.76235 55.4101 2.71151 55.4615 2.67309 55.5213C2.63468 55.5811 2.61497 55.6441 2.61497 55.7123C2.61497 55.8886 2.70733 56.0302 2.89207 56.1393C3.07681 56.2485 3.33108 56.3387 3.65385 56.4111C3.84377 56.4583 4.02955 56.5213 4.21117 56.6021C4.39279 56.6829 4.55574 56.7868 4.69896 56.9169C4.84323 57.047 4.95842 57.2054 5.0456 57.3954C5.13277 57.5842 5.17637 57.814 5.17637 58.0837C5.17637 58.3166 5.12551 58.5317 5.02277 58.729C4.92002 58.9252 4.77992 59.0963 4.60348 59.2421C4.426 59.3869 4.21947 59.4992 3.98077 59.58C3.74206 59.6598 3.48469 59.7007 3.20757 59.7007C2.95122 59.7007 2.71772 59.6755 2.50703 59.6272C2.29738 59.5769 2.10745 59.5128 1.93829 59.4321C1.76912 59.3523 1.61657 59.26 1.48061 59.1561C1.34569 59.0522 1.22842 58.9462 1.13086 58.8371L1.8771 58.0207Z" fill="#89A3AB"/>
</svg>
